<svg xmlns="http://www.w3.org/2000/svg" width="900" height="300" viewBox="0 0 900 300">
  <defs>
    <linearGradient id="abg" x1="0%" y1="0%" x2="100%" y2="100%">
      <stop offset="0%" style="stop-color:#0A0A0A"/>
      <stop offset="50%" style="stop-color:#1A1A2E"/>
      <stop offset="100%" style="stop-color:#0A0A0A"/>
    </linearGradient>
    <linearGradient id="redAccent" x1="0%" y1="0%" x2="100%" y2="0%">
      <stop offset="0%" style="stop-color:#C0392B;stop-opacity:0.6"/>
      <stop offset="100%" style="stop-color:#E91E63;stop-opacity:0.3"/>
    </linearGradient>
    <radialGradient id="aGlow" cx="50%" cy="50%" r="50%">
      <stop offset="0%" style="stop-color:#E91E63;stop-opacity:0.15"/>
      <stop offset="100%" style="stop-color:#0A0A0A;stop-opacity:0"/>
    </radialGradient>
    <filter id="agf">
      <feGaussianBlur stdDeviation="3" result="coloredBlur"/>
      <feMerge><feMergeNode in="coloredBlur"/><feMergeNode in="SourceGraphic"/></feMerge>
    </filter>
  </defs>
  <rect width="900" height="300" fill="url(#abg)"/>
  <ellipse cx="450" cy="150" rx="350" ry="200" fill="url(#aGlow)"/>
  <!-- Accent line -->
  <rect x="0" y="292" width="900" height="8" fill="url(#redAccent)"/>
  <!-- Premium border lines -->
  <line x1="60" y1="30" x2="840" y2="30" stroke="rgba(192,57,43,0.2)" stroke-width="0.5"/>
  <line x1="60" y1="270" x2="840" y2="270" stroke="rgba(192,57,43,0.2)" stroke-width="0.5"/>
  <!-- 18+ badge -->
  <rect x="780" y="40" width="60" height="30" rx="4" fill="rgba(192,57,43,0.8)" stroke="rgba(233,30,99,0.5)" stroke-width="1"/>
  <text x="810" y="61" font-family="Segoe UI, Arial, sans-serif" font-size="14" font-weight="bold" fill="white" text-anchor="middle">18+</text>
  <!-- Diamond decorative elements -->
  <polygon points="750,130 758,145 750,160 742,145" fill="none" stroke="rgba(233,30,99,0.25)" stroke-width="1"/>
  <polygon points="800,180 806,192 800,204 794,192" fill="none" stroke="rgba(192,57,43,0.2)" stroke-width="1"/>
  <polygon points="720,80 725,90 720,100 715,90" fill="none" stroke="rgba(233,30,99,0.15)" stroke-width="1"/>
  <!-- Subtle grid pattern -->
  <line x1="680" y1="60" x2="680" y2="240" stroke="rgba(255,255,255,0.03)" stroke-width="0.5"/>
  <line x1="720" y1="60" x2="720" y2="240" stroke="rgba(255,255,255,0.03)" stroke-width="0.5"/>
  <line x1="760" y1="60" x2="760" y2="240" stroke="rgba(255,255,255,0.03)" stroke-width="0.5"/>
  <line x1="800" y1="60" x2="800" y2="240" stroke="rgba(255,255,255,0.03)" stroke-width="0.5"/>
  <line x1="840" y1="60" x2="840" y2="240" stroke="rgba(255,255,255,0.03)" stroke-width="0.5"/>
  <!-- Title -->
  <text x="80" y="110" font-family="Segoe UI, Arial, sans-serif" font-size="38" font-weight="bold" fill="white" filter="url(#agf)">AI Adult Videos Generator</text>
  <text x="80" y="145" font-family="Segoe UI, Arial, sans-serif" font-size="15" fill="rgba(233,30,99,0.8)">Uncensored AI " Face Swap " Pose Control " Local GPU</text>
  <!-- Feature pills -->
  <rect x="80" y="165" width="100" height="26" rx="13" fill="rgba(192,57,43,0.3)" stroke="rgba(192,57,43,0.4)" stroke-width="0.5"/>
  <text x="130" y="183" font-family="Segoe UI, Arial, sans-serif" font-size="11" fill="rgba(255,255,255,0.85)" text-anchor="middle">DeepFake</text>
  <rect x="190" y="165" width="110" height="26" rx="13" fill="rgba(233,30,99,0.25)" stroke="rgba(233,30,99,0.35)" stroke-width="0.5"/>
  <text x="245" y="183" font-family="Segoe UI, Arial, sans-serif" font-size="11" fill="rgba(255,255,255,0.85)" text-anchor="middle">Pose Control</text>
  <rect x="310" y="165" width="120" height="26" rx="13" fill="rgba(192,57,43,0.3)" stroke="rgba(192,57,43,0.4)" stroke-width="0.5"/>
  <text x="370" y="183" font-family="Segoe UI, Arial, sans-serif" font-size="11" fill="rgba(255,255,255,0.85)" text-anchor="middle">Scene Render</text>
  <rect x="440" y="165" width="90" height="26" rx="13" fill="rgba(233,30,99,0.25)" stroke="rgba(233,30,99,0.35)" stroke-width="0.5"/>
  <text x="485" y="183" font-family="Segoe UI, Arial, sans-serif" font-size="11" fill="rgba(255,255,255,0.85)" text-anchor="middle">Privacy</text>
  <!-- Version info -->
  <rect x="80" y="210" width="70" height="22" rx="11" fill="rgba(255,255,255,0.08)"/>
  <text x="115" y="225" font-family="Segoe UI, Arial, sans-serif" font-size="11" fill="rgba(255,255,255,0.5)" text-anchor="middle">v1.8.0</text>
  <text x="165" y="225" font-family="Segoe UI, Arial, sans-serif" font-size="11" fill="rgba(255,255,255,0.3)">Local-First " GPU Accelerated " Private</text>
</svg>